<?xml version="1.0" standalone="no"?><!DOCTYPE svg PUBLIC "-//W3C//DTD SVG 1.1//EN" "http://www.w3.org/Graphics/SVG/1.1/DTD/svg11.dtd"><svg t="1523681716707" class="icon" style="" viewBox="0 0 1024 1024" version="1.1" xmlns="http://www.w3.org/2000/svg" p-id="3830" xmlns:xlink="http://www.w3.org/1999/xlink" width="32" height="32"><defs><style type="text/css"></style></defs><path d="M863.460142 234.780211c12.746302-9.595542 10.121522-17.447371-5.832845-17.447371l-693.052542 0c-15.954367 0-18.583241 7.856945-5.843078 17.45965l328.98885 247.964488c12.740162 9.602705 33.592073 9.608845 46.338375 0.013303L863.460142 234.780211z" p-id="3831"></path><path d="M678.609087 450.79708c-12.746302 9.595542-13.45136 26.15673-1.566682 36.801161l211.248262 189.215456c11.883655 10.643408 10.57587 12.375865-2.908236 3.847631L631.603517 520.147564c-13.484106-8.528234-34.942837-7.653307-47.690162 1.941212l-49.876967 37.550221c-12.746302 9.595542-33.598212 9.589402-46.338375-0.013303l-50.363038-37.960567c-12.740162-9.602705-34.192753-10.475586-47.671743-1.941212l-254.139118 160.925133c-13.478989 8.53642-14.757099 6.840802-2.838651-3.76679l212.452693-189.088566c11.917424-10.606569 11.244089-27.14115-1.496074-36.743856l-257.81381-194.320731c-12.740162-9.602705-23.164582-4.406356-23.164582 11.54801l0 562.683333c0 15.953344 13.053294 29.007661 29.007661 29.007661l838.401931 0c15.954367 0 29.007661-13.054317 29.007661-29.007661l0-562.311873c0-15.954367-10.42749-21.156856-23.173792-11.561313L678.609087 450.79708z" p-id="3832"></path></svg>