<?xml version="1.0" standalone="no"?><!DOCTYPE svg PUBLIC "-//W3C//DTD SVG 1.1//EN" "http://www.w3.org/Graphics/SVG/1.1/DTD/svg11.dtd"><svg t="1528845458519" class="icon" style="" viewBox="0 0 1024 1024" version="1.1" xmlns="http://www.w3.org/2000/svg" p-id="4962" xmlns:xlink="http://www.w3.org/1999/xlink" width="32" height="32"><defs><style type="text/css"></style></defs><path d="M511.948 248.808C218.807 248.808 63.383 526.8 63.383 526.8s167.818 247.09 448.565 247.09c280.768 0 448.604-247.09 448.604-247.09S822.67 248.808 511.948 248.808z m0.276 420.713c-89.385 0-161.85-70.712-161.85-157.925 0-87.213 72.465-157.925 161.85-157.925 89.384 0 161.849 70.712 161.849 157.925 0 87.213-72.466 157.925-161.85 157.925z m-0.256-222.322c-39.135 0-70.858 31.468-70.858 70.274 0 38.805 31.723 70.273 70.858 70.273s70.858-31.468 70.858-70.273c0-38.806-31.724-70.274-70.858-70.274z" p-id="4963"></path></svg>