<?xml version="1.0" standalone="no"?><!DOCTYPE svg PUBLIC "-//W3C//DTD SVG 1.1//EN" "http://www.w3.org/Graphics/SVG/1.1/DTD/svg11.dtd"><svg t="1528821978281" class="icon" style="" viewBox="0 0 1024 1024" version="1.1" xmlns="http://www.w3.org/2000/svg" p-id="2669" xmlns:xlink="http://www.w3.org/1999/xlink" width="32" height="32"><defs><style type="text/css"></style></defs><path d="M702.34233 750.039004l-53.943399 41.397731c-67.181212 51.222935-92.173229 70.328635-119.765914 97.899819-4.608508 4.626938-10.598237 7.205081-17.033356 7.205081-6.436143 0-12.527237-2.537188-16.994449-7.205081-20.851425-20.853472-40.179308-35.652711-78.754187-65.213304-24.404307-18.838466-54.411314-41.78476-95.320652-74.207113C212.562689 664.118643 64.616379 546.929848 64.616379 378.906171c0-163.35476 123.806166-251.468284 240.241381-251.468284 78.672277 0 151.741853 36.93052 206.65999 104.295007 55.03998-67.405443 128.232422-104.415825 207.065449-104.415826 116.23351 0 239.996672 87.545267 239.956741 249.925289 0 176.672437-166.684435 304.377558-256.178157 372.797671h-0.019453z" p-id="2670"></path></svg>