<?xml version="1.0" standalone="no"?><!DOCTYPE svg PUBLIC "-//W3C//DTD SVG 1.1//EN" "http://www.w3.org/Graphics/SVG/1.1/DTD/svg11.dtd"><svg t="1528846767519" class="icon" style="" viewBox="0 0 1024 1024" version="1.1" xmlns="http://www.w3.org/2000/svg" p-id="7308" xmlns:xlink="http://www.w3.org/1999/xlink" width="32" height="32"><defs><style type="text/css"></style></defs><path d="M903.3 98H120.1C89.2 98 62 122.6 62 153.5V657c0 30.9 27.2 56 58.1 56h268.2l-33.9 150.3s-8.7 33.2 33.2 17.5L669.3 713h234c30.9 0 52.7-25.1 52.7-56V153.5c0-30.9-21.8-55.5-52.7-55.5zM511.5 349.7c28.5 0 51.6 23.1 51.6 51.6s-23.1 51.6-51.6 51.6-51.6-23.1-51.6-51.6 23.1-51.6 51.6-51.6zM284.9 452.8c-28.5 0-51.6-23.1-51.6-51.6s23.1-51.6 51.6-51.6 51.6 23.1 51.6 51.6-23.1 51.6-51.6 51.6z m446.6 0c-28.5 0-51.6-23.1-51.6-51.6s23.1-51.6 51.6-51.6 51.6 23.1 51.6 51.6c-0.1 28.5-23.2 51.6-51.6 51.6z" p-id="7309"></path></svg>