<?xml version="1.0" standalone="no"?><!DOCTYPE svg PUBLIC "-//W3C//DTD SVG 1.1//EN" "http://www.w3.org/Graphics/SVG/1.1/DTD/svg11.dtd"><svg t="1523680095154" class="icon" style="" viewBox="0 0 1024 1024" version="1.1" xmlns="http://www.w3.org/2000/svg" p-id="2998" xmlns:xlink="http://www.w3.org/1999/xlink" width="32" height="32"><defs><style type="text/css"></style></defs><path d="M744.427 959.265h-0.019l-4.619-0.104c-107.473-5.497-252.61-106.652-388.285-270.596l-50.116-60.531C165.713 464.078 94.631 303.949 111.254 199.68 122.986 126.119 232.352 64.04 294.844 64.04c30.78 0 41.931 15.317 45.83 24.464 35.376 62.868 79.148 172.199 79.35 211.412l0.012 2.79-1 2.606c-7.802 20.612-25.26 30.487-40.661 39.197-20.29 11.466-31.821 18.995-33.23 40.67-0.418 6.578 5.256 36.502 94.766 146.842l38.269 46.21c89.758 105.928 117.998 117.33 124.61 118.273 21.645 3.01 31.837-6.48 47.404-23.544 11.851-12.994 25.296-27.74 47.479-30.989l2.809-0.4 2.762 0.586c39.088 8.243 139.142 72.725 195.942 120.597 8.201 5.443 22.513 21.602 11.18 57.299-17.778 56.063-95.281 139.212-165.94 139.212z" fill="" p-id="2999"></path></svg>