<?xml version="1.0" standalone="no"?><!DOCTYPE svg PUBLIC "-//W3C//DTD SVG 1.1//EN" "http://www.w3.org/Graphics/SVG/1.1/DTD/svg11.dtd"><svg t="1523279748508" class="icon" style="" viewBox="0 0 1024 1024" version="1.1" xmlns="http://www.w3.org/2000/svg" p-id="2672" xmlns:xlink="http://www.w3.org/1999/xlink" width="32" height="32"><defs><style type="text/css"></style></defs><path d="M884.165 451.494c-2.494-203.504-168.046-367.753-372.161-367.753s-369.666 164.249-372.165 367.753c-34.163 27.314-56.096 69.25-56.096 116.37 0 82.254 66.697 148.969 148.96 148.969 35.899 0 68.818-12.726 94.534-33.857l-70.18-261.923c-7.949-1.294-16.045-2.155-24.353-2.155-5.474 0-10.855 0.339-16.183 0.926 17.954-147.35 143.268-261.601 295.488-261.601 152.199 0 277.532 114.25 295.481 261.601-5.306-0.583-10.705-0.926-16.18-0.926-8.305 0-16.421 0.863-24.375 2.155l-70.159 261.801c19.847 16.295 43.981 27.559 70.459 31.868-35.138 37.751-79.825 66.511-130.378 82.068l-6.164 6.156c-15.77-28.99-46.122-48.892-81.442-48.892-51.427 0-93.102 41.674-93.102 93.118 0 51.431 41.673 93.104 93.102 93.104 42.211 0 77.419-28.27 88.852-66.758 102.752-25.189 188.829-92.829 238.272-183.482 38.595-26.917 63.899-71.562 63.899-122.175-0.002-47.108-21.955-89.058-56.102-116.371z" p-id="2673"></path></svg>